<svg xmlns="http://www.w3.org/2000/svg" width="39" height="38" viewBox="0 0 39 38"><g transform="translate(-794 -635)"><rect width="39" height="38" transform="translate(794 635)" fill="none"/><g transform="translate(794.36 629.635)"><path d="M36.048,14.987a19.236,19.236,0,0,0-7.031-7.031,18.9,18.9,0,0,0-9.7-2.591,18.9,18.9,0,0,0-9.7,2.591,19.234,19.234,0,0,0-7.031,7.031A18.9,18.9,0,0,0,0,24.684,18.776,18.776,0,0,0,3.685,36.042a18.922,18.922,0,0,0,9.521,6.981,1.126,1.126,0,0,0,1.006-.176.984.984,0,0,0,.327-.754q0-.075-.013-1.358T14.514,38.5l-.579.1a7.381,7.381,0,0,1-1.4.088,10.636,10.636,0,0,1-1.748-.176,3.907,3.907,0,0,1-1.686-.754A3.192,3.192,0,0,1,8,36.206l-.252-.579a6.286,6.286,0,0,0-.792-1.283,3.036,3.036,0,0,0-1.094-.956l-.176-.126a1.847,1.847,0,0,1-.327-.3,1.38,1.38,0,0,1-.226-.352q-.076-.176.126-.29a1.631,1.631,0,0,1,.73-.112l.5.075a3.672,3.672,0,0,1,1.245.6,4.06,4.06,0,0,1,1.22,1.308,4.434,4.434,0,0,0,1.4,1.572A2.962,2.962,0,0,0,12,36.306a7.154,7.154,0,0,0,1.434-.125,5,5,0,0,0,1.132-.378A4.076,4.076,0,0,1,15.8,33.212a17.225,17.225,0,0,1-2.578-.453,10.267,10.267,0,0,1-2.364-.982,6.772,6.772,0,0,1-2.025-1.685,8.1,8.1,0,0,1-1.32-2.641,12.561,12.561,0,0,1-.516-3.773A7.337,7.337,0,0,1,8.98,18.5a6.763,6.763,0,0,1,.176-5.131,3.525,3.525,0,0,1,2.163.339,15.126,15.126,0,0,1,2.1.969q.667.4,1.069.679a18.168,18.168,0,0,1,9.66,0l.956-.6a13.539,13.539,0,0,1,2.314-1.107,3.3,3.3,0,0,1,2.038-.276,6.7,6.7,0,0,1,.2,5.131,7.339,7.339,0,0,1,1.988,5.182,12.7,12.7,0,0,1-.516,3.786A7.785,7.785,0,0,1,29.8,30.1a7.033,7.033,0,0,1-2.038,1.673,10.287,10.287,0,0,1-2.365.981,17.207,17.207,0,0,1-2.578.453,4.48,4.48,0,0,1,1.308,3.572v5.307a1,1,0,0,0,.315.754,1.093,1.093,0,0,0,.994.176,18.919,18.919,0,0,0,9.522-6.98A18.78,18.78,0,0,0,38.64,24.683,18.913,18.913,0,0,0,36.048,14.987Z" transform="translate(0 0)" fill="#ebb960"/></g></g></svg>